# Blender 3.6.1
# www.blender.org
mtllib triangle.mtl
o Cube
v 1.000000 2.000000 0.000000
v 1.000000 0.000000 0.000000
v 1.000000 0.000000 2.000000
v 0.000000 2.000000 0.000000
v 0.000000 0.000000 0.000000
v 0.000000 0.000000 2.000000
vn -0.0000 -1.0000 -0.0000
vn -0.0000 -0.0000 -1.0000
vn 1.0000 -0.0000 -0.0000
vn -1.0000 -0.0000 -0.0000
vn -0.0000 0.7071 0.7071
vt 0.375000 0.500000
vt 0.125000 0.750000
vt 0.125000 0.500000
vt 0.625000 0.250000
vt 0.375000 0.250000
vt 0.625000 0.500000
vt 0.375000 0.750000
s 0
usemtl Material
f 2/1/1 6/2/1 5/3/1
f 4/4/2 2/1/2 5/5/2
f 2/1/3 1/6/3 3/7/3
f 5/5/4 6/2/4 4/4/4
f 1/6/5 6/2/5 3/7/5
f 2/1/1 3/7/1 6/2/1
f 4/4/2 1/6/2 2/1/2
f 1/6/5 4/4/5 6/2/5
